<?xml version="1.0" encoding="UTF-8"?>
<!-- Generator: Adobe Illustrator 16.0.0, SVG Export Plug-In . SVG Version: 6.00 Build 0)  -->
<!DOCTYPE svg PUBLIC "-//W3C//DTD SVG 1.1//EN" "http://www.w3.org/Graphics/SVG/1.1/DTD/svg11.dtd">
<svg version="1.1" id="Layer_1" xmlns="http://www.w3.org/2000/svg" xmlns:xlink="http://www.w3.org/1999/xlink" x="0px" y="0px" width="841.889px" height="247.141px" viewBox="0 0 841.889 247.141" enable-background="new 0 0 841.889 247.141" xml:space="preserve">
<g>
	<g>
		<path fill="#1C88AE" d="M814.333,47.78c3.946,0,7.799,1.014,11.559,3.038c3.761,2.026,6.688,4.922,8.787,8.693    c2.1,3.771,3.147,7.703,3.147,11.793c0,4.049-1.035,7.945-3.1,11.684c-2.069,3.739-4.965,6.641-8.693,8.71    c-3.729,2.066-7.63,3.1-11.7,3.1c-4.071,0-7.973-1.034-11.698-3.1c-3.73-2.069-6.633-4.971-8.708-8.71    c-2.08-3.739-3.117-7.634-3.117-11.684c0-4.09,1.055-8.022,3.162-11.793c2.109-3.771,5.042-6.667,8.802-8.693    C806.534,48.794,810.386,47.78,814.333,47.78z M814.333,51.675c-3.304,0-6.518,0.845-9.643,2.539    c-3.126,1.693-5.574,4.114-7.338,7.261c-1.767,3.145-2.648,6.423-2.648,9.829c0,3.385,0.866,6.633,2.604,9.737    c1.733,3.106,4.156,5.527,7.273,7.259c3.117,1.736,6.367,2.603,9.752,2.603s6.637-0.866,9.752-2.603    c3.117-1.732,5.535-4.152,7.261-7.259c1.724-3.104,2.585-6.352,2.585-9.737c0-3.406-0.879-6.684-2.632-9.829    c-1.756-3.147-4.202-5.567-7.339-7.261C820.824,52.52,817.615,51.675,814.333,51.675z M804.02,84.297v-25.3h8.692    c2.972,0,5.122,0.235,6.451,0.703c1.329,0.467,2.388,1.282,3.179,2.444c0.787,1.164,1.184,2.399,1.184,3.708    c0,1.85-0.66,3.458-1.979,4.828c-1.321,1.372-3.068,2.142-5.25,2.307c0.892,0.375,1.609,0.821,2.147,1.34    c1.019,0.997,2.266,2.669,3.741,5.017l3.083,4.954h-4.984l-2.242-3.987c-1.767-3.136-3.19-5.1-4.271-5.891    c-0.749-0.581-1.838-0.873-3.27-0.873h-2.401v10.751H804.02z M808.101,70.058h4.957c2.366,0,3.982-0.354,4.843-1.061    c0.863-0.706,1.292-1.638,1.292-2.802c0-0.749-0.208-1.417-0.621-2.011c-0.416-0.591-0.993-1.033-1.73-1.325    c-0.737-0.29-2.101-0.435-4.097-0.435h-4.644V70.058z"/>
	</g>
	<path fill="#1C88AE" d="M131.318,52.22c11.756,0,18.715-1.201,23.034-2.399c4.079-0.96,5.758-2.159,6.238-2.159   c0.959,0,1.68,0.478,1.439,2.398c-0.48,3.359-2.879,37.908-2.16,47.506c0,1.44-0.479,1.681-1.919,1.921l-3.119,0.24   c-2.16,0.24-2.64-0.48-3.119-3.119c-1.2-7.919-5.519-24.713-8.878-31.672c-6.717-2.639-28.792-5.038-36.709-5.038h-5.038   l-39.59,124.284c-4.798,15.355-3.119,20.634,10.318,20.634h9.357c1.68,0,1.918,1.2,1.68,2.4l-0.96,4.558   c-0.24,1.201-0.719,1.921-3.119,1.921c-3.359,0-12.956-0.72-35.989-0.72c-17.275,0-29.992,0.72-32.631,0.72   c-1.919,0-2.16-0.72-1.919-2.4l0.72-4.558c0.24-1.201,0.719-1.921,2.639-1.921h6.479c14.396,0,18.715-6.477,24.473-24.714   L80.932,59.899h-6.238c-23.273,0-36.23,2.639-43.188,4.798c-9.598,8.157-20.635,22.074-24.473,28.313   c-0.72,1.198-1.68,1.198-3.119,0.72l-3.119-1.44c-0.959-0.48-0.959-1.438-0.48-2.399c2.879-5.518,17.755-38.391,18.234-39.829   c0.48-1.44,0.721-2.398,1.92-2.398c2.639,0,8.158,4.558,39.109,4.558H131.318z"/>
	<path fill="#1E8840" d="M276.117,68.971c-12.359-5.087-23.475-2.549-30.891,6.365c3.704-2.549,11.117-10.181,24.698-5.089   c13.6,5.089,16.076,21.622,14.841,30.515c-2.476,35.625-28.422,103.037-69.182,105.586c-23.475,2.534-35.821-14.01-37.057-17.813   h-1.248c6.187,15.264,22.249,24.169,40.767,24.169c49.417,1.263,86.487-53.423,84.012-99.213   C300.814,86.781,287.228,74.056,276.117,68.971"/>
	<path fill="#1E8840" d="M190.879,193.626c17.284,6.343,27.167-1.289,29.65-3.831c-18.532,8.918-35.83-1.261-37.072-25.438   c-1.23-33.062,30.892-110.64,71.653-110.64c14.814,0,24.698,5.077,33.353,13.988c-3.697-7.638-17.284-19.075-37.05-19.075   c-48.188,0-85.245,48.322-84.011,99.202C168.644,175.807,179.761,188.534,190.879,193.626"/>
	<path fill="#1C88AE" d="M435.036,198.58c-0.96,3.119-1.681,4.077-4.321,5.277c-6.955,2.88-27.831,10.799-46.545,10.799   c-42.228,0-68.861-29.754-68.861-67.184c0-56.863,46.789-100.771,98.132-100.771c20.636,0,34.072,8.159,38.87,11.996   c3.117,2.401,5.278,2.879,6.479,2.879c3.357,0,4.798-2.399,6.238-7.677c0.24-0.96,0.721-1.441,2.396-0.96l2.882,0.72   c0.96,0.24,1.681,0.72,1.44,1.918l-13.677,48.228c-0.48,1.438-0.961,1.679-2.882,1.438l-3.117-0.48   c-1.2-0.239-1.921-0.958-1.44-2.398c5.278-20.634-7.198-47.506-37.189-47.506c-43.428,0-74.858,44.627-74.858,97.172   c0,37.91,22.314,53.984,44.386,53.984c15.358,0,25.674-6.477,29.991-10.075c2.161-1.921,3.361-5.04,4.322-8.159l4.797-23.272   c2.161-9.598-1.68-11.517-9.599-11.517h-8.875c-1.921,0-2.161-0.721-1.681-2.401l0.96-4.558c0.24-1.44,0.72-1.918,2.641-1.918   c3.597,0,11.997,0.718,27.83,0.718c16.314,0,22.072-0.718,25.434-0.718c1.681,0,2.401,0.718,2.161,2.398l-0.721,4.558   c-0.24,1.44-0.72,1.921-2.16,1.921h-3.838c-5.758,0-9.359,1.919-10.8,8.637L435.036,198.58z"/>
	<path fill="#1C88AE" d="M518.099,140.666l-19.976,44.179c-2.954,6.774-5.75,13.298-4.776,16.797   c1.042,3.749,4.656,5.98,9.715,5.948l8.279-0.051c1.149-0.007,2.208,0.486,2.307,2.49l0.399,4.751   c0.115,1.252-0.133,2.005-1.745,2.016c-2.299,0.015-12.399-0.676-30.339-0.564c-15.178,0.095-23.02,0.895-25.549,0.909   c-1.149,0.007-2.439-0.484-2.556-1.736l-0.382-5.503c-0.184-1.503,0.138-2.005,1.055-2.011l3.452-0.021   c9.891-0.061,17.467-7.617,22.758-18.413L548.819,50.62c0.664-1.756,1.444-2.262,5.745-2.54c3.151-0.268,8.232-1.051,10.324-1.814   c2.324-0.765,5.192-2.034,7.036-2.047c1.839-0.01,2.967,0.733,2.992,2.485l4.742,138.887c0.262,4.256,0.617,10.511,1.728,14.509   c1.111,3.996,5.857,6.97,10.453,6.941l6.213-0.038c1.381-0.009,2.276,0.735,2.534,2.488l0.562,4.5   c0.185,1.503-0.064,2.256-2.136,2.269c-2.761,0.017-12.168-0.678-27.809-0.581c-16.1,0.101-23.02,0.894-26.702,0.917   c-2.066,0.014-2.809-0.983-2.993-2.484l-0.398-4.753c-0.047-1.003,0.133-2.004,1.282-2.011l4.373-0.027   c8.738-0.054,14.23-1.84,13.621-20.61l-1.351-46.297L518.099,140.666z M559.134,131.655l-0.626-66.075   c-0.056-3.505-4.335-3.979-5.548-1.719l-31.316,68.025L559.134,131.655z"/>
	<g>
		<g>
			<path fill="#1C88AE" d="M671.351,68.774c1.921-6.236-0.24-9.117-6.719-9.117h-8.156c-1.679,0-2.159-0.478-1.679-2.159     l1.438-4.798c0.24-1.201,0.96-1.921,2.879-1.921c3.6,0,13.438,0.72,26.394,0.72c36.229,0,53.504-0.48,64.063-0.72     c11.756-0.48,18.234-2.399,20.873-2.399c1.919,0,2.399,1.681,2.399,3.84c0.24,6.238,4.319,34.791,4.8,37.43     c0.24,1.198-0.24,1.918-1.2,2.159l-3.6,1.441c-0.958,0.478-1.679,0-1.919-1.201c-0.96-3.6-12.477-23.753-14.875-26.872     c-3.359-4.32-2.401-3.839-8.878-4.32c-4.56-0.48-47.508-1.2-52.305-1.2L674.71,123.96l35.752-0.479     c15.833-0.24,18.234-9.118,22.792-24.714c0.48-1.681,1.681-1.44,2.879-1.2l3.84,0.721c0.96,0.239,1.438,0.72,0.96,2.158     l-14.157,60.225c-0.48,1.198-1.198,1.679-2.398,1.198l-4.08-0.48c-1.198-0.24-1.679-0.718-1.438-2.158     c2.879-17.515,2.639-25.434-10.798-25.914l-35.989-1.438l-16.316,54.464c-4.317,14.876-1.679,17.755,6.719,17.755h6.719     c1.679,0,2.398,0.721,2.158,1.921l-1.679,5.519c-0.239,1.2-1.2,1.44-2.879,1.44c-2.879,0-10.077-0.721-29.272-0.721     c-20.153,0-26.392,0.721-29.033,0.721c-1.2,0-1.921-0.48-1.681-1.921l0.961-5.038c0.239-1.2,0.72-1.921,2.4-1.921h6.959     c7.677,0,13.437-4.798,16.556-14.635L671.351,68.774z"/>
		</g>
	</g>
</g>
<script xmlns="" id="jv0asv_a725bf_1j_lcp8jx"/></svg>